# xmcd CD database file
#
# Track frame offsets:
#	150
#	11780
#	23343
#	36453
#	47850
#	60325
#
# Disc length: 967 seconds
#
# Revision: 0
# Processed by: cddbd v1.5.1PL2 Copyright (c) Steve Scherf et al.
# Submitted via: CDex 1.51
#
DISCID=4303c506
DTITLE=David Riviere - Les Valses des Pionniers
DYEAR=2004
DGENRE=Jazz
TTITLE0=Volubilis
TTITLE1=Indifference
TTITLE2=Germaine
TTITLE3=Passion
TTITLE4=Brise Napolitaine
TTITLE5=Flambee Montalbanaise
EXTD=YEAR: 2004
EXTT0=
EXTT1=
EXTT2=
EXTT3=
EXTT4=
EXTT5=
PLAYORDER=
